<?xml version="1.0" encoding="UTF-8" standalone="no"?>
<!-- Created with Inkscape (http://www.inkscape.org/) -->

<svg
   xmlns:dc="http://purl.org/dc/elements/1.1/"
   xmlns:cc="http://creativecommons.org/ns#"
   xmlns:rdf="http://www.w3.org/1999/02/22-rdf-syntax-ns#"
   xmlns:svg="http://www.w3.org/2000/svg"
   xmlns="http://www.w3.org/2000/svg"
   xmlns:sodipodi="http://sodipodi.sourceforge.net/DTD/sodipodi-0.dtd"
   xmlns:inkscape="http://www.inkscape.org/namespaces/inkscape"
   id="svg3336"
   version="1.1"
   inkscape:version="0.91 r13725"
   width="421.16711"
   height="420.70874"
   viewBox="0 0 421.16711 420.70874"
   sodipodi:docname="logo2.svg">
  <metadata
     id="metadata3342">
    <rdf:RDF>
      <cc:Work
         rdf:about="">
        <dc:format>image/svg+xml</dc:format>
        <dc:type
           rdf:resource="http://purl.org/dc/dcmitype/StillImage" />
        <dc:title></dc:title>
      </cc:Work>
    </rdf:RDF>
  </metadata>
  <defs
     id="defs3340" />
  <sodipodi:namedview
     pagecolor="#ffffff"
     bordercolor="#666666"
     borderopacity="1"
     objecttolerance="10"
     gridtolerance="10"
     guidetolerance="10"
     inkscape:pageopacity="0"
     inkscape:pageshadow="2"
     inkscape:window-width="1920"
     inkscape:window-height="1017"
     id="namedview3338"
     showgrid="false"
     fit-margin-top="0"
     fit-margin-left="0"
     fit-margin-right="0"
     fit-margin-bottom="0"
     inkscape:zoom="2.0100741"
     inkscape:cx="144.14108"
     inkscape:cy="210.03942"
     inkscape:window-x="1912"
     inkscape:window-y="-8"
     inkscape:window-maximized="1"
     inkscape:current-layer="svg3336" />
  <path
     style="fill:#000000;fill-opacity:1"
     d="m 191.82954,418.1659 c -12.79452,-3.22535 -24.40364,-7.60254 -37.41276,-14.10637 -17.48636,-8.74219 -21.63978,-11.32669 -29.49967,-18.35637 -1.28906,-1.15291 -4.34753,-3.87544 -6.79659,-6.05007 -7.71491,-6.85039 -17.23469,-18.82847 -24.609662,-30.96463 -3.635372,-5.98232 -9.445692,-18.22061 -12.31389,-25.93677 -1.872269,-5.03687 -3.543518,-9.31826 -3.713888,-9.51421 -0.170369,-0.19595 -4.016627,0.85874 -8.547241,2.34375 l -8.237481,2.70002 -13.59375,0 -13.59375,0 -7.288024,-3.56163 -7.288024,-3.56163 -4.232035,-5.34462 c -2.32762,-2.93954 -5.4816028,-7.93619 -7.0088514,-11.10365 l -2.7768156,-5.75903 0,-4.78785 0,-4.78784 1.2299452,0 c 0.6764698,0 2.1648265,1.26449 3.3074593,2.80999 2.0138275,2.72385 8.4883335,6.5652 13.2750955,7.87617 1.361777,0.37296 4.143396,3.08047 6.639101,6.46224 4.903664,6.64464 9.277166,9.94377 16.384617,12.35967 l 4.965456,1.6878 11.614164,-0.44741 11.614165,-0.44741 6.673393,-2.61822 c 3.670367,-1.44002 7.22846,-2.40251 7.906874,-2.13885 0.678413,0.26364 2.677945,4.43269 4.443402,9.26456 2.705787,7.40544 8.10959,18.90796 11.79008,25.09634 6.4684,10.87598 9.87961,15.11748 21.5625,26.81086 12.89984,12.91143 18.09464,16.52594 36.47253,25.3774 30.24742,14.56826 55.49777,18.89994 87.22756,14.96382 l 11.12882,-1.38055 11.80429,-3.83991 c 22.99965,-7.48176 31.1455,-11.35608 45.76546,-21.76696 12.06978,-8.59488 24.92883,-21.3961 31.77497,-31.63204 9.31339,-13.92485 20.20596,-38.02017 23.30941,-51.5625 0.88624,-3.86719 1.92659,-8.08594 2.31191,-9.375 l 0.70058,-2.34375 2.72099,0.21421 c 1.49654,0.11782 6.93973,0.32015 12.09598,0.44962 l 9.375,0.23539 4.97347,-2.22787 4.97345,-2.22788 5.10467,1.14237 5.10466,1.14238 0,2.32923 0,2.32923 -4.24852,1.87933 c -5.25617,2.32505 -14.69255,3.13175 -23.61157,2.01851 l -6.76635,-0.84456 -1.01679,5.21752 c -3.10395,15.92744 -16.31822,46.76371 -26.54154,61.93627 -7.04514,10.45578 -21.57527,24.87275 -33.99784,33.73307 -13.09736,9.34161 -25.87369,15.49969 -46.31739,22.32454 l -15.46875,5.16404 -11.25,0.28836 -11.25,0.28838 c -10.30009,-0.67014 -9.40167,2.19749 -25.3125,-0.16659 l -8.4375,0.0467 -8.4375,0.0467 -6.68132,-1.68428 z m -46.15547,-70.77198 -0.13192,4.16862 -10.3125,0 -10.3125,0 -4e-5,-2.34379 -0.10749,-1.89146 m -2.37516,-1.2438 -3.07634,0.044 -0.066,-1.61888 0,-2.36642 15.79107,0.21308 15.61518,0.30101 0.29958,2.10937 0.0357,1.62568 -2.5699,-0.0879 -2.92167,-0.022 m -30.00001,-8.78141 0,-3.75 7.03125,0 7.03125,0 0,-11.29497 0,-11.29496 2.44183,-2.10038 2.44183,-2.10037 -4.82786,-4.09944 -4.82785,-4.09942 0.27664,-5.14257 0.27666,-5.14256 1.83541,-1.03454 c 1.00947,-0.569 2.41493,-1.56611 3.12324,-2.21582 l 1.28783,-1.18128 -4.29511,-4.17437 -4.29512,-4.17437 0,-4.25373 c 0,-2.33954 0.36027,-4.25372 0.80061,-4.25372 0.44032,0 1.91688,-1.03454 3.28125,-2.29898 l 2.48064,-2.29899 0,-29.10726 0,-29.10727 -7.03125,0 -7.03125,0 0,-4.21875 0,-4.21875 20.625,0 20.625,0 0,4.21875 0,4.21875 -7.03125,0 -7.03125,0 0,14.0625 0,14.0625 36.5625,0 36.5625,0 0,-1.0433 0,-1.04328 6.61756,0.37392 6.61756,0.37392 0.86809,1.3725 c 0.47744,0.75487 0.87454,3.43349 0.88244,5.95249 l 0.0143,4.57999 -2.39205,2.21688 -2.39205,2.21688 -4.70617,0 -4.70616,0 -1.40625,-1.40625 -1.40625,-1.40625 -35.55804,0 -35.55803,0 0,11.96198 0,11.962 -1.875,1.17095 c -2.1691,1.35464 -2.53179,4.90507 -0.50107,4.90507 0.75567,0 2.65411,1.2514 4.21875,2.78091 l 2.84483,2.78089 0,3.73647 0,3.73647 -3.43693,3.33791 -3.43694,3.33791 4.37444,4.19144 4.37443,4.19145 0,4.49632 0,4.4963 -1.98987,1.37884 c -3.44803,2.38924 -4.57263,3.79915 -4.57263,5.73268 l 0,1.87618 66.1799,-0.21846 66.17988,-0.21846 0.837,1.32221 c 0.46035,0.72721 0.84347,3.5069 0.85137,6.1771 l 0.0143,4.85491 -1.47322,1.47321 -1.47321,1.47322 -4.38616,-0.006 c -2.41238,-0.003 -5.59454,-0.636 -7.07145,-1.40625 l -2.68527,-1.40063 -60.59597,0.19083 c -33.32778,0.10495 -59.49315,0.62362 -55.23611,0.68255 l 10.1089,0.13994 0,3.71209 0,3.71209 -19.21875,0 -19.21875,0 0,-3.75 z m 177.1875,-40.78125 0,-37.96875 21.5625,0 21.5625,0 0,5.15625 0,5.15625 -15.46875,0 -15.46875,0 0,10.3125 0,10.3125 14.53125,0 14.53125,0 0,5.15625 0,5.15625 -14.53125,0 -14.53125,0 0,12.1875 0,12.1875 16.40625,0 16.40625,0 0,5.15625 0,5.15625 -22.5,0 -22.5,0 z M 36.557733,288.00564 c -1.751301,-0.35293 -2.255966,-3.45218 -0.71701,-4.40331 0.507988,-0.31395 3.517896,-8.59915 6.688684,-18.41155 l 5.765071,-17.84072 4.049362,-5.38684 c 4.869845,-6.47833 12.599057,-13.59164 17.729518,-16.31674 l 3.75,-1.99186 -6.5625,-0.76693 C 47.514793,220.58004 32.220311,213.69601 19.946605,201.59159 8.313304,190.11874 0.34525785,178.57347 0.57229634,168.60455 -0.81288045,157.07158 0.26405012,135.59997 4.3766171,138.54675 c 49.5039719,120.66347 -2.2493127,6.61511 -3.0254307,9.1095 l -0.077683,-4.6875 c -0.089631,-5.40843 0.8208421,-7.35126 3.227812,-6.88772 l 1.7032808,0.32802 1.5453752,6.09236 c 1.7889781,7.0527 3.6695156,10.99265 6.4461566,13.50548 l 1.97098,1.78372 0,3.49981 c 0,4.9919 4.293943,19.14374 7.296161,24.04646 1.401175,2.28816 3.034458,5.02889 3.62952,6.0905 1.65885,2.95947 11.561299,12.7712 16.041498,15.89455 10.226826,7.12958 22.931956,11.93465 33.501571,12.67027 4.125,0.28709 8.042845,1.03452 8.706322,1.66095 1.747491,1.64991 0.418872,4.16421 -2.960652,5.60278 -4.068148,1.7317 -12.87167,9.97676 -16.90193,15.82974 l -3.362402,4.88308 -4.693795,14.51017 c -2.581586,7.9806 -4.693793,15.01756 -4.693793,15.63771 0,3.26919 -12.15084,10.69935 -16.171875,9.88901 z m 362.230717,-10.15201 -4.93431,-2.45887 -2.41285,-5.2755 -2.41284,-5.27551 -0.005,-5.625 c -0.003,-3.09375 0.32466,-11.35578 0.7276,-18.36006 l 0.73263,-12.73505 -1.62683,-4.89797 -1.62685,-4.89797 -5.7658,-2.69977 c -3.17119,-1.48486 -6.50407,-2.92349 -7.40642,-3.19693 -2.75194,-0.83391 -1.84299,-4.04341 2.20442,-7.78383 2.11478,-1.95438 4.94161,-5.42242 6.28185,-7.70675 l 2.43681,-4.15334 0.39039,-8.1654 0.39039,-8.1654 -2.09816,-10.53723 -2.09816,-10.53723 0.42868,-7.14403 0.42867,-7.14404 2.42639,-4.75088 c 2.66541,-5.2196 9.73542,-11.65537 12.80365,-11.65537 2.01176,0 2.69106,2.24482 0.99626,3.29227 -0.52542,0.32473 -2.05838,2.76719 -3.40655,5.42768 l -2.45122,4.83727 -0.45447,5.6616 -0.45445,5.6616 1.98601,10.38055 1.98601,10.38056 0,9.35283 0,9.35283 -1.48373,4.99628 -1.48375,4.99629 -5.12631,5.12631 c -2.81948,2.81948 -4.99945,5.21974 -4.84439,5.33392 0.15506,0.11418 2.18037,0.93662 4.50068,1.82764 2.32031,0.89101 5.75987,2.62604 7.64347,3.8556 l 3.42471,2.23556 1.61693,4.86809 1.61692,4.86809 -0.69268,15.10064 c -0.38098,8.30535 -0.69771,17.21002 -0.70384,19.78814 l -0.0111,4.6875 2.44724,5.39063 c 1.34598,2.96484 2.87444,5.39062 3.39657,5.39062 0.52213,0 0.94932,0.63281 0.94932,1.40625 0,2.06933 -2.74967,1.72128 -8.31616,-1.05262 z M 266.01086,248.3401 c -12.27824,-1.79696 -22.57681,-9.60151 -26.90543,-20.3897 l -2.12421,-5.29415 0,-12.1875 0,-12.1875 2.17243,-5.42304 2.17243,-5.42305 5.04674,-5.45107 5.04674,-5.45109 5.8894,-2.6852 5.8894,-2.68522 10.73473,-0.37594 c 6.32275,-0.22141 12.77675,0.0811 15.70313,0.73595 l 4.96839,1.11188 0,2.60536 c 0,3.90779 -1.87285,8.51017 -3.46305,8.51017 -0.77254,0 -3.76072,-0.68494 -6.64039,-1.52208 l -5.23576,-1.52208 -5.45893,0.57058 c -14.93567,1.56108 -24.20187,12.58628 -24.20187,28.79607 l 0,6.41967 1.90963,5.10394 1.90962,5.10393 4.12085,3.79846 c 2.26646,2.08916 5.73135,4.50018 7.69974,5.35783 4.53599,1.9764 14.17266,2.19062 21.18749,0.47101 l 5.42109,-1.32891 0.97979,0.97979 c 0.53889,0.53889 1.05253,3.02847 1.14142,5.53239 l 0.16162,4.55261 -4.21875,1.04646 c -6.35749,1.577 -17.58854,2.15505 -23.90625,1.23043 z m -150.46875,-59.43385 0,-4.21875 7.5,0 7.5,0 0,-20.55709 0,-20.55709 71.01562,-0.30228 71.01563,-0.30229 1.64062,0.92864 1.64063,0.92863 0,5.01484 0,5.01484 -2.10938,1.75971 -2.10937,1.75971 -4.80709,0.0312 -4.80708,0.0312 -1.16708,-1.40625 -1.16708,-1.40625 -57.54146,0 -57.54146,0 0,14.53125 0,14.53125 6.09375,0 6.09375,0 0,4.21875 0,4.21875 -20.625,0 -20.625,0 0,-4.21875 z m -85.146109,-24.4819 c -4.614282,-2.01498 -3.235694,-3.57231 3.657198,-4.13139 l 6.020159,-0.48829 5.868754,-2.69083 c 3.227814,-1.47994 10.610627,-6.42564 16.40625,-10.99043 12.172815,-9.58763 14.637752,-10.88192 29.036019,-15.24623 12.962049,-3.92897 21.967549,-5.25218 35.745349,-5.25218 l 10.51446,0 3.16962,2.64611 c 1.89661,1.58336 2.89561,3.08948 2.48738,3.75 l -0.68223,1.10389 -9.08531,0.0327 c -11.46735,0.0412 -21.1858,1.76229 -34.866542,6.17442 l -10.78125,3.47703 -7.03125,5.18013 c -3.867188,2.84906 -7.453125,5.66129 -7.96875,6.24938 -1.627528,1.85628 -11.397617,7.8778 -15.94378,9.82652 l -4.367918,1.8723 -9.53165,-0.0765 -9.531652,-0.0765 -3.114857,-1.3602 z M 333.04211,141.00491 c 0,-0.8223 0.9005,-4.45979 2.00111,-8.08331 l 2.00111,-6.58822 -0.53355,-7.15107 c -0.9526,-12.76746 -6.34241,-28.775404 -13.93283,-41.381038 -1.40088,-2.326486 -3.91499,-8.232736 -5.58692,-13.125 l -3.03985,-8.895022 -0.0188,-8.90625 -0.0188,-8.90625 2.01157,-4.453125 c 1.10636,-2.449219 2.56263,-4.452598 3.23615,-4.451955 l 1.22459,0.0011 0.093,7.733205 0.093,7.733205 2.94925,8.711458 c 1.62208,4.791302 5.67044,13.861614 8.99636,20.15625 l 6.04722,11.444837 2.49629,9.375 2.4963,9.374995 0.48419,9.47136 0.4842,9.47136 -2.16978,7.3089 c -2.1812,7.34741 -5.53246,12.65463 -7.9908,12.65463 -0.72761,0 -1.32292,-0.67279 -1.32292,-1.49509 z m 19.25879,-20.00263 c -0.29666,-0.48 -0.0455,-1.178 0.55827,-1.5511 l 0.66234,-2.12423 1.44917,2.64196 -2.53078,1.2583 1.04142,-0.64364 c 0.57277,-0.35399 0.81344,-1.23769 0.5348,-1.96378 l -0.50658,-1.32017 5.93816,-4.37492 c 11.3768,-8.38184 19.9613,-11.08256 35.4861,-11.16403 l 7.98544,-0.0419 6.08598,2.99463 c 3.3473,1.64705 7.29718,4.25885 8.77754,5.804 l 2.69155,2.80938 0.31169,4.16337 0.31169,4.16338 -6.29342,-0.49122 -6.29341,-0.49122 -3.05921,-2.66148 c -3.56131,-3.09829 -9.61217,-6.01703 -14.28454,-6.8904 -1.80469,-0.33734 -7.64458,-0.16523 -12.97755,0.38247 l -9.69629,0.99579 -5.30371,2.8943 c -2.91703,1.59185 -6.17464,3.7018 -7.23912,4.68877 -2.1706,2.01252 -2.86675,2.18835 -3.64954,0.92176 z M 102.07856,103.82813 C 89.156087,90.801349 84.392819,84.183063 81.062066,74.626914 l -2.320676,-6.658164 0.513229,-8.4375 0.513229,-8.4375 2.459167,-7.734375 2.459168,-7.734375 1.759723,0 1.759723,0 0.640048,2.914118 c 0.352027,1.602764 1.898446,5.603253 3.436489,8.889975 l 2.796445,5.975857 -1.682238,4.93815 -1.682234,4.93815 -0.03914,7.96875 -0.03914,7.96875 1.724575,3.75 c 4.33595,9.428296 6.938926,13.048809 17.259806,24.00687 3.22265,3.42162 5.85937,6.69717 5.85937,7.27901 0,2.9383 -4.05715,8.9e-4 -14.40105,-10.4265 z m 100.1821,-14.766258 c -0.32742,-1.031595 -2.14881,-3.035501 -4.04755,-4.453125 -1.89874,-1.417623 -4.07822,-3.173333 -4.84329,-3.901577 -2.438,-2.320629 -10.89653,-5.729863 -17.98873,-7.250404 -8.72018,-1.869574 -18.90977,-1.855891 -32.93387,0.04423 -13.04723,1.767762 -22.94983,1.916656 -27.94465,0.420174 l -3.60081,-1.078832 -4.75797,-4.985287 -4.75797,-4.985286 2.19286,-0.550374 c 1.20608,-0.302705 3.36402,-0.105102 4.79543,0.439119 3.67047,1.395512 11.45603,1.231143 25.00849,-0.527978 30.57869,-3.969138 49.18626,-0.496936 62.8843,11.73431 l 5.25603,4.693219 0.59035,-13.783154 c 0.32468,-7.58074 0.86909,-20.005815 1.20979,-27.611284 l 0.61944,-13.828123 1.22606,0 c 0.67435,0 1.5616,1.582031 1.97169,3.515625 0.98143,4.627579 0.92933,25.568666 -0.11662,46.875 l -0.83991,17.109375 -1.66389,0 c -0.91513,0 -1.93176,-0.844032 -2.25918,-1.875628 z m 62.85062,-4.921247 C 262.32966,75.37742 259.07417,66.982317 256.84056,62.8125 251.7123,53.238756 249.30613,49.228415 247.27821,46.875 246.16744,45.585937 244.49398,43.302009 243.55941,41.799603 240.6201,37.074368 234.34353,30.830062 228.63993,26.956829 221.29437,21.968551 205.98503,14.0625 203.67126,14.0625 l -1.85399,0 -1.32773,-3.177716 C 199.75928,9.13704 197.59516,5.9729777 195.68037,3.8535339 L 192.19893,0 204.84409,0.2638361 c 0,0 -2.28526,2.6000105 -11.20629,-0.093313 L 202.17658,0.0632754 206.77979,2e-7 l 8.99054,4.8302783 c 17.46994,9.3859455 22.2899,13.5175635 32.09736,27.5134715 7.87489,11.238022 14.21747,23.303347 17.58775,33.456729 1.65799,4.994952 3.43777,9.222807 3.95506,9.395233 l 0.94051,0.313502 -0.65023,4.901643 -0.65023,4.901643 -1.78365,0 c -0.981,0 -1.95103,-0.527344 -2.15562,-1.171875 z m 5.33836,-9.527116 -1.15753,-2.426009 c -2.21672,-4.645915 1.58326,-16.270127 5.692,-26.778954 4.44312,-11.36402 8.85528,-18.478944 16.56439,-26.711229 l 5.65715,-6.041067 7.72747,-4.5893228 c 4.25011,-2.5241275 10.24152,-5.3717837 13.31426,-6.3281249 L 323.83416,0 333.0646,0 c 5.07675,0 10.3433,0.4231042 11.70344,0.9402315 l 2.473,0.9402315 -0.30259,1.5100909 c -0.17845,0.8905372 -2.74268,2.3926108 -6.25002,3.6611326 -3.2711,1.1830729 -7.57058,3.4554285 -9.5544,5.0496775 L 327.52706,15 l -3.16607,0 c -9.08743,0 -24.83061,8.195568 -33.31628,17.34375 -8.68853,9.366881 -15.34473,21.472409 -18.81512,34.21875 l -0.89337,3.28125 c -0.19585,-2.577334 -0.19894,-2.615133 0.002,-0.01572 l -0.0999,0.2294 c -0.0647,0.148572 -0.0687,0.219051 -0.17966,0.779394 -0.10177,0.513932 0.0898,0.962299 -0.15889,1.931763 l -0.45224,1.762662 c 0.0549,-0.322862 0.013,-0.33173 0.003,0.08226 z"
     id="path3426"
     inkscape:connector-curvature="0"
     sodipodi:nodetypes="cssssssscccccsscccssssscccscssssscssssscsscccccccsscssssccccccccccccccccccccccccccccccccccccsscccssscccccccccccccccccccccsccccccccccccssscccccccccsscccscccccccssccccccccccccccccccccccccccccccccssscsscsscccsscsscsssssssscssscccccscccssssccccccccssscccccccccsssscccsscsssccsscccccccccsccssscsscccssscsscsscccccccccccccccccccccccccccccccscsssscsccsscsssccccccscssscccsccccsscccccsscccccccsccsscsscccccssscssccsscccccccsscccccssssssssscccsssscsscssscsssssssscsscscccsssscccssscsscsscsscssscssscccsscccc" />
</svg>
